<svg id="b20baccf-b4ca-473b-99b0-2ea57b42c435" data-name="Layer 1" xmlns="http://www.w3.org/2000/svg" width="865.76" height="682.89" viewBox="0 0 865.76 682.89"><g id="af635d67-6e25-41b7-8a4b-4c7f9f2807dd" data-name="freepik--background-complete--inject-6"><rect x="-20.9" y="579.39" width="858.22" height="0.43" fill="#ebebeb"/><rect x="694.48" y="607.01" width="56.85" height="0.43" fill="#ebebeb"/><rect x="532.71" y="611.68" width="14.92" height="0.43" fill="#ebebeb"/><rect x="659.83" y="591.08" width="32.94" height="0.43" fill="#ebebeb"/><rect x="69.14" y="593.97" width="74.13" height="0.43" fill="#ebebeb"/><rect x="158.57" y="593.97" width="10.87" height="0.43" fill="#ebebeb"/><rect x="204.76" y="601.21" width="160.8" height="0.43" fill="#ebebeb"/><path d="M385.9,502.84H54.47a9.8,9.8,0,0,1-9.79-9.8V27.14a9.81,9.81,0,0,1,9.79-9.71H385.9a9.8,9.8,0,0,1,9.8,9.8h0V493A9.8,9.8,0,0,1,385.9,502.84ZM54.47,17.77a9.37,9.37,0,0,0-9.36,9.37V493a9.37,9.37,0,0,0,9.36,9.37H385.9a9.39,9.39,0,0,0,9.37-9.37V27.14a9.39,9.39,0,0,0-9.37-9.37Z" fill="#ebebeb"/><path d="M757.18,502.84H425.74a9.81,9.81,0,0,1-9.8-9.8V27.14a9.81,9.81,0,0,1,9.8-9.71H757.18A9.8,9.8,0,0,1,767,27.14V493A9.8,9.8,0,0,1,757.18,502.84ZM425.74,17.77a9.39,9.39,0,0,0-9.38,9.37V493a9.39,9.39,0,0,0,9.38,9.37H757.18a9.39,9.39,0,0,0,9.37-9.37V27.14a9.39,9.39,0,0,0-9.37-9.37Z" fill="#ebebeb"/><path d="M525.38,407.78H731.59a14.15,14.15,0,0,1-13.53,14.15c-22.15,1-56.24,4.49-67.06,16.75-20.15,22.86-18.19,103.16,5.94,121.75,7.57,5.83,29.63,17.42,29.63,17.42H570.38S591,566,598.17,560.43c24-18.75,24.7-99,4.45-121.75-10.39-11.67-42.33-15.45-63.79-16.63A14.25,14.25,0,0,1,525.38,407.78Z" fill="#f5f5f5"/><path d="M706.05,422.66c-21,1.72-46,5.82-55,16a40.62,40.62,0,0,0-6.86,11.81H609.55a41.14,41.14,0,0,0-6.87-11.81c-9-10.14-34.32-14.32-54.92-16Z" fill="#e6e6e6"/><polygon points="613.22 407.89 616.02 375.84 575.38 375.84 572.56 407.89 613.22 407.89" fill="#ebebeb"/><polygon points="613.22 407.89 616.02 375.84 618.2 375.84 615.4 407.89 613.22 407.89" fill="#e0e0e0"/><polygon points="609.36 404.63 611.59 379.1 579.22 379.1 576.99 404.63 609.36 404.63" fill="#f0f0f0"/><polygon points="606.87 402.53 608.74 381.21 581.71 381.21 579.84 402.53 606.87 402.53" fill="#fafafa"/><polygon points="626.41 407.78 667.24 407.78 662.71 356 621.88 356 626.41 407.78" fill="#e6e6e6"/><polygon points="626.41 407.78 624.45 407.78 619.92 356 621.88 356 626.41 407.78" fill="#e0e0e0"/><polygon points="630.1 402.51 662.61 402.51 659 361.29 626.49 361.29 630.1 402.51" fill="#f0f0f0"/><polygon points="632.48 399.12 659.64 399.12 656.62 364.68 629.46 364.68 632.48 399.12" fill="#fafafa"/><path d="M646.2,380.17h0a4.7,4.7,0,0,1-6.65,0l0,0h0a4.72,4.72,0,0,1,0-6.66l0,0h0a4.73,4.73,0,0,1,6.68,0h0A4.75,4.75,0,0,1,646.2,380.17Z" fill="#ebebeb"/><path d="M644.21,386h0a3.43,3.43,0,0,1,4.85,0l0,0h0a3.43,3.43,0,0,1-2.46,5.9h0a3.43,3.43,0,0,1-3.48-3.38A3.38,3.38,0,0,1,644.21,386Z" fill="#f0f0f0"/><path d="M298.14,567.26h39.7L316.93,397a15.2,15.2,0,0,0-14.66-13.06H128.81l25.37,183.35Z" fill="#f5f5f5"/><path d="M172,567.26H132.22L111.27,397A11.31,11.31,0,0,1,120.69,384a11.43,11.43,0,0,1,2-.13h13.74A15.19,15.19,0,0,1,151.1,397Z" fill="#f0f0f0"/><path d="M186.65,567.05l-7.21-82.39a7.85,7.85,0,0,0-6.86-7.09l-3-.39a10.5,10.5,0,0,1-9.15-9.53l-1.32-15a10.54,10.54,0,0,1,9.59-11.41l.89,0H103.2a10.53,10.53,0,0,0-10.53,10.55,8.7,8.7,0,0,0,0,.89l1.32,15a10.51,10.51,0,0,0,9.15,9.53l3,.39a7.84,7.84,0,0,1,6.87,7.09l7.21,82.39a11.64,11.64,0,0,0,11.58,10.61h66.46A11.61,11.61,0,0,1,186.65,567.05Z" fill="#e6e6e6"/><path d="M369.56,464.07a25.05,25.05,0,0,1,24.92-22.87H336.64a25.06,25.06,0,0,0-24.94,22.87L306,529.29h57.86Z" fill="#e6e6e6"/><path d="M420.23,441.2H394.48a25.07,25.07,0,0,0-24.94,22.87l-5.72,65.22H226l-5.72-65.22a25.07,25.07,0,0,0-24.94-22.87H169.62a10.53,10.53,0,0,0-10.52,10.55c0,.3,0,.6,0,.9l1.32,15a10.5,10.5,0,0,0,9.15,9.53l3,.39a7.84,7.84,0,0,1,6.86,7.09l7.21,82.39a11.62,11.62,0,0,0,11.57,10.61H391.65a11.64,11.64,0,0,0,11.58-10.61l7.2-82.39a7.84,7.84,0,0,1,6.86-7.09l3-.38a10.53,10.53,0,0,0,9.15-9.54l1.32-15a10.54,10.54,0,0,0-9.59-11.41C420.84,441.22,420.53,441.2,420.23,441.2Z" fill="#f0f0f0"/><path d="M653.08,148.38s2-13.25-7.66-21.77-8.82-13.56-6-14.21,5.32,7.84,9.56,10.18c0,0,.13-12.12-4.17-16.58s-6.6-16-2.49-16.17,4.54,6.86,5.39,11.81,5.42,12,5.42,12,.89-10.85,3.69-15.31-4.65-14.67-1.72-19.14,8,4,7.56,13.61-6.87,19.78-5.32,29.77c0,0,2.81-7,5.35-7.66s5.06-5.28,6.76-7,3.83,4.24,0,9.77S655.81,138,657.29,150Z" fill="#e6e6e6"/><path d="M647.31,142.35l-3.17,19.88a10.09,10.09,0,0,0,8.37,11.56,9.51,9.51,0,0,0,1.6.13h3.43a10.12,10.12,0,0,0,10.12-10.11,9.27,9.27,0,0,0-.13-1.58l-3.17-19.88Z" fill="#e6e6e6"/><rect x="471.32" y="166.59" width="223.89" height="11.5" fill="#e0e0e0"/><rect x="481.62" y="124.17" width="9.87" height="42.4" fill="#ebebeb"/><rect x="529.32" y="124.17" width="9.87" height="42.4" fill="#ebebeb"/><rect x="587.14" y="123.63" width="9.87" height="42.4" transform="translate(-16 102.68) rotate(-9.78)" fill="#ebebeb"/><rect x="493.84" y="129.77" width="9.87" height="36.82" fill="#ebebeb"/><rect x="516.52" y="129.77" width="9.87" height="36.82" fill="#ebebeb"/><rect x="573.75" y="129.77" width="9.87" height="36.82" fill="#ebebeb"/><rect x="546.4" y="129.1" width="9.87" height="36.82" transform="translate(-18.87 123.13) rotate(-12.53)" fill="#ebebeb"/><rect x="507.3" y="122.08" width="4.93" height="44.51" fill="#ebebeb"/><rect x="565.97" y="122.08" width="4.93" height="44.51" fill="#ebebeb"/><rect x="471.31" y="252.46" width="223.89" height="11.5" fill="#e0e0e0"/><rect x="675.03" y="210.07" width="9.87" height="42.4" fill="#ebebeb"/><rect x="627.33" y="210.07" width="9.87" height="42.4" fill="#ebebeb"/><rect x="553.28" y="225.77" width="42.4" height="9.87" transform="translate(249.54 757.65) rotate(-80.22)" fill="#ebebeb"/><rect x="662.83" y="215.64" width="9.87" height="36.82" fill="#ebebeb"/><rect x="640.14" y="215.64" width="9.87" height="36.82" fill="#ebebeb"/><rect x="582.91" y="215.64" width="9.87" height="36.82" fill="#ebebeb"/><rect x="596.81" y="228.46" width="36.82" height="9.87" transform="translate(253.92 783.33) rotate(-77.47)" fill="#ebebeb"/><rect x="654.28" y="207.95" width="4.93" height="44.51" fill="#ebebeb"/><rect x="595.61" y="207.95" width="4.93" height="44.51" fill="#ebebeb"/><rect x="492.81" y="218.89" width="48.06" height="33.18" fill="#ebebeb"/><rect x="100.68" y="97.93" width="280.74" height="11.17" rx="3.64" fill="#e0e0e0"/><rect x="117.36" y="106.82" width="247.39" height="219.53" fill="#e6e6e6"/><rect x="123.56" y="112.83" width="234.69" height="207.6" fill="#f0f0f0"/><polygon points="178.64 112.83 123.56 319.99 123.56 222.65 152.63 112.83 178.64 112.83" fill="#fff"/><polygon points="198.13 112.83 142.57 320.45 133.72 320.45 189.28 112.83 198.13 112.83" fill="#fff"/><polygon points="358.25 243.84 358.25 277.01 347 320.45 338.13 320.45 358.25 243.84" fill="#fff"/><rect x="201.45" y="109.1" width="3.95" height="215.98" fill="#e6e6e6"/><rect x="278.07" y="109.1" width="3.95" height="215.98" fill="#e6e6e6"/><path d="M324.43,101.53s5.7,74.28,38.43,112.12c0,0-23.84,95.59-23.82,128.93l44.3-8.19-16-120.15L375,101.53Z" fill="#e0e0e0"/><path d="M157.61,101.53s-5.7,74.28-38.43,112.12c0,0,23.84,95.59,23.82,128.93l-44.3-8.19,16-120.15-7.57-112.71Z" fill="#e0e0e0"/></g><g id="b65ab6f6-8cbf-4bc5-8ac1-592463332ee2" data-name="freepik--Shadow--inject-6"><ellipse id="ad4e3cae-e01f-4ad8-a3c1-5afe8db036bb" data-name="freepik--path--inject-6" cx="408.21" cy="637.48" rx="332.8" ry="19.43" fill="#f5f5f5"/></g><path d="M129.16,636.34s7.53-12.61,12.31-8.34c0,0,5,5.39,5.45,10.94,0,0,2.58-12.44,10.27-7.13l21.22,25.47a2,2,0,0,1-.57,3c-1.34.74-4,1.28-9.08.74,0,0-11.91-2-21.22-8.86a23.08,23.08,0,0,1-3.74-3.52C141.05,645.45,134.41,638.29,129.16,636.34Z" fill="#90e1ef"/><path d="M153.91,569.33s-11.79,48.91-16.15,58.08l13.53,17,30.14-64.64Z" fill="#f9b499"/><polygon points="303.71 646.19 288.43 578.94 318.13 578.94 319.87 646.19 303.71 646.19" fill="#f9b499"/><path d="M300.22,183.69s-4.37,14.63-5,20.75L281,194.07l10.2-17.88Z" fill="#f9b499"/><polygon points="328.81 254.52 336.47 264.35 359.8 250.78 359.8 273.87 324.89 286.37 316.82 261.32 328.81 254.52" fill="#f4a790"/><polygon points="336.47 248.33 320.39 261.32 301.88 211.98 336.47 248.33" fill="#90e1ef"/><polygon points="336.47 248.33 320.39 261.32 301.88 211.98 336.47 248.33" fill="#231f20" opacity="0.2"/><path d="M661.31,495.11,741.52,87.25a34.61,34.61,0,0,0-34-41.29H501.78a35.84,35.84,0,0,0-35.19,29L385.15,496.28A21.24,21.24,0,0,0,406,521.56H629.16A32.77,32.77,0,0,0,661.31,495.11Z" fill="#2f2e41"/><path d="M617.26,482.36H416.45a15.46,15.46,0,0,1-15.17-18.45L477,80.33a24.39,24.39,0,0,1,23.92-19.67H682.47A27,27,0,0,1,708.93,93L632.41,470A15.47,15.47,0,0,1,617.26,482.36Z" fill="#fff"/><polygon points="500.07 186.17 489.64 169.51 505.38 154.69 527.52 180.68 500.07 186.17" fill="#f9b499"/><polygon points="493.25 481.93 493.25 352.49 568.81 349.96 550.25 481.93 493.25 481.93" fill="#2f2e41"/><polygon points="493.25 481.93 493.25 352.49 568.81 349.96 550.25 481.93 493.25 481.93" fill="#231f20" opacity="0.4"/><path d="M598.7,349.31l-110,3.84,1.89-144.06a39.8,39.8,0,0,1,5.37-19.73c4.7-8,13.18-16,27.9-13.26.46.08.93.17,1.4.23,3.45.5,23,4.36,33.37,29.92.65,1.6,1.3,3.2,2,4.79,5.19,12.15,26.58,64.7,40.27,135.57A2.28,2.28,0,0,1,598.7,349.31Z" fill="#90e1ef"/><path d="M555.71,230.86s10.7,37.45-8.24,62.13a39.5,39.5,0,0,1-28,15.45c-11.82,1-26.56-3.26-27.57-30,0,0-4.81-73.38,11.35-77.74" fill="#231f20" opacity="0.4"/><path d="M482.69,207.71s7.09-11.68,12.24-16.52c0,0-3,5.5-4.33,16.52Z" fill="#90e1ef"/><path d="M482.69,207.71s7.09-11.68,12.24-16.52c0,0-3,5.5-4.33,16.52Z" fill="#231f20" opacity="0.4"/><path d="M497.69,165.75s1.91,10-1.24,14.64l-3.21-5.14A29.66,29.66,0,0,0,497.69,165.75Z" fill="#f4a790"/><path d="M227.1,306s9.85-70.09,28.56-100.52c7.27-11.83,22.8-15.79,34.51-8.31,5,3.19,9.66,8.44,12.47,17,0,0,13.74,34.63-18,97.58Z" fill="#90e1ef"/><path d="M258.58,236.15s-17,44.32,9.42,59.31a15.53,15.53,0,0,0,14.23.67c5.16-2.42,11.46-7.62,14.41-18.78l-10.31-37.77Z" fill="#231f20" opacity="0.2"/><path d="M141.47,569.33l49.78,20.31L291.2,350l-6.58-38.27L227.1,306S178.15,333.49,141.47,569.33Z" fill="#2f2e41"/><path d="M270.52,589.64l54.37-7.21-10.29-112a38.91,38.91,0,0,0-.58-4L291.2,350,242.48,466.8s8.49,21.95,10.73,42.26Z" fill="#2f2e41"/><path d="M270.52,589.64l54.37-7.21-10.29-112a38.91,38.91,0,0,0-.58-4L291.2,350,242.48,466.8s8.49,21.95,10.73,42.26Z" fill="#231f20" opacity="0.2"/><path d="M299.13,653.4s.65-12.67,5-11.79a18.06,18.06,0,0,1,10.05,4.58s.65-10.48,8.51-8.29l29.67,11.61a2,2,0,0,1,.95,2.69c-1.47,2-5.53,4.86-14.9,6.88,0,0-11.13,2.52-22.05-1.53A128.39,128.39,0,0,0,299.13,653.4Z" fill="#90e1ef"/><path d="M299.13,653.4s-5,3.71-2,8.08c0,0,.66,4.15,12.89,2.62,0,0,10.31-1.51,16.18.34,0,0,16.35,3.37,28.14-8.86,0,0,3.64-3.86-2-6.07,0,0,3.17,2.19-2.12,4.93,0,0-10.3,8.17-30.39,4.11C319.87,658.55,306.92,653.91,299.13,653.4Z" fill="#2f2e41"/><path d="M124.26,642.17c-.1-2.43.83-5,4.9-5.83h0s7.14,2.8,14.64,12.27c0,0,8,9.28,25.87,12.29h0s8.3,1.13,9.08-1.8h0s3.4,4.8-6.3,6.16c0,0-12.58,1.88-22.51-5.83A41,41,0,0,0,138,652.91a57,57,0,0,1-9.82-4.38A7.78,7.78,0,0,1,124.26,642.17Z" fill="#2f2e41"/><path d="M427.48,209.16l-1.52-.72c-1.4-.67-34.48-16.51-36.88-31.31-.57-3.49.59-6.65,3.46-9.4a10.3,10.3,0,0,1,9.6-2.1c6.42,1.75,16,10.44,24.89,41.91Zm-28.23-42.4a8.74,8.74,0,0,0-5.66,2.07c-2.51,2.41-3.49,5-3,8.06,2,12.26,27.85,26.06,34.49,29.41-8.58-29.39-17.39-37.55-23.31-39.19A9.36,9.36,0,0,0,399.25,166.76Z" fill="#d1d3d4"/><path d="M426,208.69l.48-1.62c.44-1.49,11.06-36.59,25.32-41.23,3.36-1.09,6.67-.42,9.82,2a10.36,10.36,0,0,1,3.54,9.16c-.75,6.62-7.89,17.37-37.63,31Zm28.93-41.83a8.33,8.33,0,0,0-2.66.44c-11.82,3.84-21.51,31.5-23.81,38.57,27.77-13,34.49-22.94,35.18-29.05a8.89,8.89,0,0,0-2.95-7.78A9.39,9.39,0,0,0,454.9,166.86Z" fill="#d1d3d4"/><path d="M563.47,482.43,508.32,351.84l84.51-2.62,36.46,124.66s-2.46,8.55-13.56,8.55Z" fill="#2f2e41"/><path d="M563.47,482.43,508.32,351.84l84.51-2.62,36.46,124.66s-2.46,8.55-13.56,8.55Z" fill="#fff" opacity="0.22"/><polyline points="553.7 224.31 553.7 250.08 503.3 255.32 503.3 195.92" fill="#90e1ef"/><ellipse cx="482.98" cy="154.69" rx="17.12" ry="26.9" fill="#f9b499"/><path d="M501.07,160.61c-3.33-2.64-15-10.88-36.68-16.35,0,0-9.7-1.28-5.85-15.55,0,0,1.17-12.44,26.93-8.6,0,0,20.09-6.59,25.58,6.4,0,0,5.83,8.75.56,31.72a5.63,5.63,0,0,1-6.48,4.28l-.16,0A9.24,9.24,0,0,1,501.07,160.61Z" fill="#3f3d56"/><ellipse cx="490.96" cy="155.15" rx="5.49" ry="6.31" fill="#f9b499"/><rect x="356.85" y="207.71" width="138.88" height="93.61" fill="#d1d3d4"/><rect x="402.85" y="207.71" width="92.88" height="93.61" fill="#231f20" opacity="0.2"/><rect x="378.39" y="207.71" width="2.33" height="93.61" fill="#fff"/><rect x="425.12" y="183.91" width="2.33" height="138.88" transform="translate(679.64 -172.94) rotate(90)" fill="#fff"/><rect x="448.85" y="207.71" width="2.33" height="93.61" fill="#fff"/><path d="M507.23,280.21V255.32L547,250.78s-2.93,55.75-27.44,57.66c0,0-41.11,1.91-60.33-3.77,0,0-17,9.17-31.88,0L422.9,301s16.64,1.07,24.5-1.11c0,0-13.1-1.46-12.52-4.37,0,0,1.45-1.46,24.46.29Z" fill="#f9b499"/><path d="M281.83,275.57s23.77,32.78,42.89,35.88a11.42,11.42,0,0,0,4.83-.27c7.19-2,32.42-10.77,69.91-44.33l15.67-8.08a4.84,4.84,0,0,0,1.49-1.21L425,247.27a3.55,3.55,0,0,0,.59-3.4l-1.47-4.15a3.51,3.51,0,0,0-4.72-2.06l-17.22,7.53a4.81,4.81,0,0,0-2,1.65l-8.43,12.26S344,274.51,330.06,279.76l-10.3-19.64Z" fill="#f9b499"/><polyline points="302.64 214.11 323.82 258.47 277.46 277.35 258.58 236.15" fill="#90e1ef"/><path d="M706.3,592.08c0-.55-1.85-54.81-10.64-63.34-8.46-8.24-18.23-.31-18.64,0l-1.1-1.32c.12-.09,11.36-9.27,20.94,0,9.29,9,11.09,62.25,11.16,64.5Z" fill="#d1d3d4"/><path d="M707.07,602.75c-.25-2.66-6.06-65.22,17.58-92.38l1.29,1.12C702.8,538,708.77,602,708.77,602.58Z" fill="#d1d3d4"/><path d="M706.52,595.92l-1.71-.12c0-.72,4.62-73.31-12.62-89.15l1.17-1.27C711.19,521.79,706.73,592.88,706.52,595.92Z" fill="#d1d3d4"/><path d="M708.77,595.87h-1.71c0-2,.58-49.18,14-56.88a9.58,9.58,0,0,1,8.79-.85c8.15,3.44,12.18,17.84,12.35,18.46l-1.71.44c0-.13-4-14.26-11.35-17.32a7.93,7.93,0,0,0-7.29.76C709.34,547.69,708.79,595.39,708.77,595.87Z" fill="#d1d3d4"/><path d="M703.57,595.9l-1.71-.08c0-.38,2-37.15-7.88-50.07-2.39-3.09-5-4.55-7.64-4.38-6.44.45-11.84,9.89-11.9,10l-1.51-.84c.24-.43,5.94-10.3,13.27-10.86,3.3-.23,6.39,1.45,9.13,5C705.61,558.14,703.66,594.38,703.57,595.9Z" fill="#d1d3d4"/><path d="M705.43,600.92c-.28-3.58-6.51-87.72,4.48-102.6l1.39,1c-10.63,14.35-4.24,100.57-4.17,101.45Z" fill="#d1d3d4"/><path d="M732.8,546.8s-6.57,2.42-4.61,8.13,22.74,15.14,22.74,15.14,8.7-8,.7-20.94S733,542.71,732.8,546.8Z" fill="#bcbec0"/><path d="M704.22,535.91s7-.29,7.4,5.74-15.15,22.72-15.15,22.72-11.11-4-8.72-19.07S702.49,532.19,704.22,535.91Z" fill="#bcbec0"/><path d="M698.3,507.06s4.67-.5,4.29-3.33-18.14-10.16-28.61,1.72c0,0,6.71,11.53,16.41,11.67S698.3,507.06,698.3,507.06Z" fill="#bcbec0"/><path d="M707,500.19s-4.23,2.05-5.41-.56,10-18.21,25.16-13.73c0,0,.41,13.33-7.76,18.59S707,500.19,707,500.19Z" fill="#bcbec0"/><path d="M684.91,544.5s3.21-2.6-.25-3.87-20.6-.91-20.72,16c0,0,19.86,3.3,22.31-3.14S684.91,544.5,684.91,544.5Z" fill="#bcbec0"/><path d="M725.41,506.61s-3.21-2.61.25-3.88,20.6-.91,20.7,16c0,0-19.86,3.3-22.31-3.14S725.41,506.61,725.41,506.61Z" fill="#bcbec0"/><path d="M714.9,520.22s-.27-3.17,2.28-1.92,11.44,10.83,2.22,19.93c0,0-12.39-9.18-10.16-14S714.9,520.22,714.9,520.22Z" fill="#bcbec0"/><path d="M682,524.72s1.92-2.52-.89-2.83-15.45,3.06-12.51,15.67c0,0,15.44-1.15,16-6.4S682,524.72,682,524.72Z" fill="#bcbec0"/><polygon points="734.04 642.69 681.21 642.69 675.53 584.87 739.74 584.87 734.04 642.69" fill="#2f2e41"/><rect x="672.69" y="578.48" width="69.84" height="12.75" fill="#2f2e41"/><rect x="672.69" y="578.48" width="69.84" height="12.75" fill="#231f20" opacity="0.4"/><path d="M298.44,189.7l-.74,3.05s-8-3.53-6.78-10.67Z" fill="#f4a48e"/><ellipse cx="305.6" cy="168.28" rx="24.31" ry="16.73" transform="translate(101.52 451.23) rotate(-83.04)" fill="#f9b499"/><path d="M290.11,184.31c-3.74,8.79-12.59,24.29-28.29,23.4,0,0-22.23-2.83-33.9-7.14a6.05,6.05,0,0,1-3.26-8.4c3.91-7.72,12.1-21.25,22.59-23.73,0,0,8.63-2.42,12.68-12.95,0,0,12.95-24,33.18-21.85,0,0,16.46-10.79,26.17-.13,0,0,8.38,9.88-2.15,16.61,0,0-14.58,9.15-19.43,14.68a14.55,14.55,0,0,0-5.62,10.52A26.65,26.65,0,0,1,290.11,184.31Z" fill="#2f2e41"/><ellipse cx="297.7" cy="164.8" rx="4.59" ry="6.07" fill="#f9b499"/></svg>